#!OML:ASF F:\VICON\USERDATA\INSTALL\rory3\rory3.ASF
:FULLY-SPECIFIED
:DEGREES
354
root 2.43564 23.6626 -0.543977 -165.285 -18.4234 174.385
lowerback 8.34619 -1.88213 -3.8043
upperback 1.67789 -2.91489 0.641967
thorax -2.71374 -1.4643 3.10557
lowerneck -16.8551 -0.0941645 -10.8365
upperneck 39.1372 -1.93324 3.95689
head 17.2889 -3.03881 3.001
rclavicle -7.77248e-014 7.55382e-015
rhumerus 5.11436 -0.670176 -67.3047
rradius 104.784
rwrist -8.08039
rhand -20.9796 -6.81825
rfingers 7.12502
rthumb 5.39405 -36.7296
lclavicle -7.77248e-014 7.55382e-015
lhumerus 3.9925 -12.3762 83.2569
lradius 71.5858
lwrist 21.8061
lhand -21.0253 21.8093
lfingers 7.12502
lthumb 5.34994 51.7218
rfemur -28.9682 -3.03874 19.6463
rtibia 36.1132
rfoot -10.3341 -6.43278
rtoes 9.23878
lfemur -32.729 5.25905 -25.7933
ltibia 37.0749
lfoot 6.43834 -15.2102
ltoes -22.649
355
root 2.46987 23.6809 -0.558526 -165.317 -19.22 174.283
lowerback 8.43716 -1.98747 -3.71335
upperback 1.71751 -3.04867 0.75434
thorax -2.71102 -1.533 3.18724
lowerneck -16.9964 -0.227315 -10.8943
upperneck 39.1527 -2.06359 3.9334
head 17.3521 -3.09419 2.97831
rclavicle 2.48481e-014 -1.27222e-014
rhumerus 5.41232 -0.637528 -67.0628
rradius 105.046
rwrist -8.96782
rhand -20.3717 -7.57073
rfingers 7.12502
rthumb 5.98096 -37.4663
lclavicle 2.48481e-014 -1.27222e-014
lhumerus 4.25869 -12.3802 83.535
lradius 70.9832
lwrist 21.6802
lhand -20.7513 21.3271
lfingers 7.12502
lthumb 5.61448 51.2327
rfemur -28.4841 -3.31685 19.72
rtibia 35.5889
rfoot -10.4415 -6.7477
rtoes 9.03206
lfemur -33.3301 5.94282 -25.8924
ltibia 38.3446
lfoot 5.87415 -14.9932
ltoes -26.3532
356
root 2.50568 23.6971 -0.568393 -165.248 -20.0502 174.123
lowerback 8.61825 -2.06344 -3.68031
upperback 1.58082 -3.14708 0.821207
thorax -2.94332 -1.57156 3.26096
lowerneck -16.8224 -0.35068 -10.8463
upperneck 39.2176 -2.32124 3.9013
head 17.3721 -3.20622 2.90507
rclavicle -5.96354e-016 -2.38542e-015
rhumerus 5.28623 -0.763978 -66.9907
rradius 105.439
rwrist -9.88259
rhand -19.3489 -8.35926
rfingers 7.12502
rthumb 6.96832 -38.2246
lclavicle -5.96354e-016 -2.38542e-015
lhumerus 4.3514 -12.6224 83.8164
lradius 70.3877
lwrist 21.7046
lhand -20.565 20.9581
lfingers 7.12502
lthumb 5.79437 50.8589
rfemur -28.1207 -3.65906 19.7569
rtibia 35.0784
rfoot -10.4475 -7.13134
rtoes 9.41809
lfemur -34.0968 6.57209 -26.0899
ltibia 39.8424
lfoot 5.1041 -15.0354
ltoes -26.5944
357
root 2.53559 23.7229 -0.589091 -165.145 -20.5877 174.063
lowerback 8.57886 -2.02504 -3.6453
upperback 1.35469 -3.08038 0.857663
thorax -3.16124 -1.5243 3.27728
lowerneck -16.218 -0.414992 -10.8137
upperneck 39.158 -2.62398 4.0302
head 17.2166 -3.32208 2.89801
rclavicle -1.11319e-014 -5.1684e-015
rhumerus 4.81972 -0.937401 -67.0091
rradius 105.996
rwrist -11.3705
rhand -18.5225 -9.18002
rfingers 7.12502
rthumb 7.76606 -39.0174
lclavicle -1.11319e-014 -5.1684e-015
lhumerus 4.25969 -13.0066 84.1156
lradius 69.8093
lwrist 21.7399
lhand -20.3779 20.6504
lfingers 7.12502
lthumb 5.97499 50.5462
rfemur -27.8188 -3.77275 19.8432
rtibia 34.5071
rfoot -10.3265 -7.52585
rtoes 9.89464
lfemur -35.0332 7.66755 -26.3464
ltibia 41.6224
lfoot 4.04055 -15.8922
ltoes -24.731
358
root 2.57295 23.7505 -0.59867 -165.078 -21.5727 173.774
lowerback 8.62953 -2.16694 -3.71413
upperback 1.34767 -3.27574 0.896646
thorax -3.17458 -1.61994 3.3792
lowerneck -15.8817 -0.502131 -10.8025
upperneck 38.9475 -2.8282 4.167
head 17.0394 -3.36982 2.9206
rclavicle 5.30755e-014 -6.36111e-015
rhumerus 4.69446 -1.21621 -67.0841
rradius 106.642
rwrist -13.203
rhand -17.9026 -10.1349
rfingers 7.12502
rthumb 8.36433 -39.9493
lclavicle 5.30755e-014 -6.36111e-015
lhumerus 4.56337 -13.2019 84.3164
lradius 69.1922
lwrist 21.7499
lhand -20.2417 20.196
lfingers 7.12502
lthumb 6.10645 50.088
rfemur -27.3193 -4.08167 19.7592
rtibia 33.8469
rfoot -10.379 -8.13095
rtoes 9.83966
lfemur -35.9712 8.24686 -26.7059
ltibia 43.6479
lfoot 2.74277 -17.0248
ltoes -22.7888
359
root 2.60694 23.7798 -0.604592 -165.047 -22.524 173.677
lowerback 8.41058 -2.29351 -3.5687
upperback 1.5963 -3.42612 1.00339
thorax -2.78421 -1.71382 3.40335
lowerneck -16.052 -0.741527 -10.9243
upperneck 38.7428 -3.05542 4.22838
head 17.0048 -3.43247 2.93132
rclavicle -1.37161e-014 1.35174e-014
rhumerus 4.96658 -1.68683 -67.2067
rradius 107.252
rwrist -14.6453
rhand -17.3592 -11.0093
rfingers 7.12502
rthumb 8.88877 -40.8021
lclavicle -1.37161e-014 1.35174e-014
lhumerus 5.29543 -13.3643 84.4603
lradius 68.6681
lwrist 21.7272
lhand -20.0944 19.8903
lfingers 7.12502
lthumb 6.24871 49.7781
rfemur -26.7853 -4.38737 19.8667
rtibia 33.0331
rfoot -10.3973 -8.7544
rtoes 9.6683
lfemur -36.9796 8.70431 -26.8241
ltibia 45.8583
lfoot 1.44136 -17.5775
ltoes -21.6095
360
root 2.64209 23.8175 -0.618098 -165.182 -23.13 173.778
lowerback 8.3472 -2.30574 -3.48473
upperback 1.77207 -3.43471 1.16792
thorax -2.56083 -1.73059 3.51829
lowerneck -16.1577 -0.954891 -11.1519
upperneck 38.572 -3.26486 4.3569
head 16.9745 -3.50389 2.99325
rclavicle -3.71727e-014 1.98785e-014
rhumerus 5.00995 -1.98857 -67.3801
rradius 107.89
rwrist -15.5987
rhand -17.2113 -11.6495
rfingers 7.12502
rthumb 9.03144 -41.4361
lclavicle -3.71727e-014 1.98785e-014
lhumerus 5.75536 -13.4648 84.6672
lradius 68.2044
lwrist 21.6488
lhand -19.9438 19.7062
lfingers 7.12502
lthumb 6.39405 49.5897
rfemur -26.1461 -4.35188 20.0987
rtibia 32.2166
rfoot -10.486 -9.30935
rtoes 10.0064
lfemur -37.9287 9.57609 -26.8166
ltibia 48.2179
lfoot 0.0945795 -17.5064
ltoes -21.7871
361
root 2.65969 23.8605 -0.655414 -164.903 -22.6911 173.863
lowerback 7.48336 -2.03684 -3.65026
upperback 1.84252 -3.05368 1.20384
thorax -2.02943 -1.55179 3.56729
lowerneck -16.2176 -1.05165 -11.1034
upperneck 38.5005 -3.36838 4.32903
head 16.9628 -3.52684 2.95404
rclavicle 2.5842e-015 1.27222e-014
rhumerus 4.75978 -2.32554 -67.7308
rradius 108.559
rwrist -16.0964
rhand -17.2691 -11.9881
rfingers 7.12502
rthumb 8.9757 -41.7772
lclavicle 2.5842e-015 1.27222e-014
lhumerus 6.02348 -13.5968 84.8204
lradius 67.7741
lwrist 21.6787
lhand -19.8344 19.5722
lfingers 7.12502
lthumb 6.49967 49.4525
rfemur -26.0447 -3.86649 20.1842
rtibia 31.4627
rfoot -10.2319 -9.4462
rtoes 9.99089
lfemur -39.3535 11.5081 -27.2668
ltibia 50.6928
lfoot -1.47524 -17.154
ltoes -23.2937
362
root 2.68763 23.8814 -0.653272 -164.629 -23.4374 173.75
lowerback 7.36661 -2.12929 -3.5574
upperback 1.82733 -3.16143 1.3047
thorax -1.9701 -1.60627 3.62293
lowerneck -16.2952 -1.16758 -11.0874
upperneck 38.4661 -3.52261 4.36067
head 16.9834 -3.56953 2.93834
rclavicle -4.51241e-014 1.59028e-014
rhumerus 4.41367 -2.90011 -68.0614
rradius 109.328
rwrist -15.9106
rhand -17.4029 -12.4414
rfingers 7.12502
rthumb 8.84661 -42.236
lclavicle -4.51241e-014 1.59028e-014
lhumerus 6.40344 -13.8293 84.9819
lradius 67.3844
lwrist 21.8806
lhand -19.7687 19.4771
lfingers 7.12502
lthumb 6.56311 49.3554
rfemur -25.9359 -4.1948 20.2633
rtibia 30.7637
rfoot -10.056 -9.91323
rtoes 9.47494
lfemur -40.9838 12.13 -27.7452
ltibia 53.2855
lfoot -3.04597 -16.7414
ltoes -25.1892
363
root 2.73554 23.8877 -0.623525 -164.678 -25.5015 173.58
lowerback 8.26592 -2.6467 -3.18853
upperback 1.74458 -3.84843 1.5542
thorax -2.50161 -1.93904 3.78749
lowerneck -16.3448 -1.28503 -11.2636
upperneck 38.4276 -3.64726 4.45597
head 16.9987 -3.62228 2.9907
rclavicle 2.64384e-014 9.54166e-015
rhumerus 4.41604 -3.30538 -68.2082
rradius 109.756
rwrist -15.3001
rhand -17.7454 -12.967
rfingers 7.12502
rthumb 8.51602 -42.7753
lclavicle 2.64384e-014 9.54166e-015
lhumerus 6.70511 -13.9905 85.159
lradius 67.08
lwrist 22.0188
lhand -19.6176 19.4138
lfingers 7.12502
lthumb 6.70901 49.2875
rfemur -25.4237 -5.16979 20.4703
rtibia 30.1209
rfoot -10.1482 -10.8554
rtoes 8.78189
lfemur -42.4154 11.2921 -27.8482
ltibia 56.0062
lfoot -4.07929 -16.2528
ltoes -25.9874
364
root 2.76752 23.9149 -0.632263 -164.623 -26.2212 173.444
lowerback 8.32205 -2.76304 -3.25585
upperback 1.78639 -4.01041 1.69621
thorax -2.4603 -2.02284 3.98933
lowerneck -16.3794 -1.35909 -11.4243
upperneck 38.3398 -3.68504 4.52504
head 16.9723 -3.63676 3.04472
rclavicle -2.46493e-014 -2.22639e-014
rhumerus 4.29251 -3.63215 -68.5237
rradius 110.23
rwrist -14.5277
rhand -17.9989 -13.2475
rfingers 7.12502
rthumb 8.27141 -43.0656
lclavicle -2.46493e-014 -2.22639e-014
lhumerus 7.04847 -14.1311 85.2742
lradius 66.7237
lwrist 22.1475
lhand -19.5461 19.3863
lfingers 7.12502
lthumb 6.77799 49.2578
rfemur -25.0077 -5.44931 20.5036
rtibia 29.4139
rfoot -9.97826 -11.297
rtoes 8.26339
lfemur -43.7522 11.6856 -28.1438
ltibia 58.7754
lfoot -5.11917 -15.7641
ltoes -25.455
365
root 2.79891 23.9462 -0.637607 -164.66 -27.0827 173.365
lowerback 8.49281 -2.90157 -3.19903
upperback 1.85041 -4.19706 1.83543
thorax -2.46511 -2.12006 4.12793
lowerneck -16.4104 -1.4171 -11.4252
upperneck 38.2413 -3.70397 4.48514
head 16.9299 -3.63271 3.02457
rclavicle 3.06128e-014 -7.95139e-016
rhumerus 4.02678 -3.99453 -68.8242
rradius 110.746
rwrist -13.8565
rhand -18.1236 -13.4102
rfingers 7.12502
rthumb 8.15102 -43.233
lclavicle 3.06128e-014 -7.95139e-016
lhumerus 7.36068 -14.2681 85.4382
lradius 66.3569
lwrist 22.1193
lhand -19.4856 19.0754
lfingers 7.12502
lthumb 6.83643 48.945
rfemur -24.4712 -5.82432 20.5976
rtibia 28.5873
rfoot -9.84265 -11.7637
rtoes 8.4888
lfemur -45.03 11.9085 -28.3279
ltibia 61.5901
lfoot -6.17724 -15.0626
ltoes -24.2844
366
root 2.82817 23.9925 -0.657413 -164.79 -27.6328 173.349
lowerback 8.59314 -2.93118 -3.3274
upperback 1.93533 -4.25344 2.01106
thorax -2.40435 -2.15425 4.39105
lowerneck -16.4175 -1.46003 -11.3477
upperneck 38.1997 -3.6936 4.29509
head 16.9034 -3.63372 2.92743
rclavicle -1.19271e-015 1.90833e-014
rhumerus 3.66119 -4.26625 -69.0035
rradius 111.22
rwrist -13.2309
rhand -18.1746 -13.5574
rfingers 7.12502
rthumb 8.10178 -43.3821
lclavicle -1.19271e-015 1.90833e-014
lhumerus 7.51931 -14.2927 85.7047
lradius 66.0689
lwrist 22.0262
lhand -19.2673 18.8297
lfingers 7.12502
lthumb 7.0471 48.6924
rfemur -23.7169 -5.94159 20.6968
rtibia 27.5338
rfoot -9.59525 -12.2334
rtoes 8.53684
lfemur -46.1237 12.5318 -28.4817
ltibia 64.3608
lfoot -7.10826 -14.3183
ltoes -22.8357
